<svg xmlns="http://www.w3.org/2000/svg" xmlns:xlink="http://www.w3.org/1999/xlink" viewBox="0 0 720 540"><defs><style>.a{fill:none;}.b{font-size:75px;font-family:GESSTextMedium-Medium, GE SS;font-weight:500;}.b,.c,.f{fill:#2f4298;}.c{font-size:97px;font-family:Avenir-Roman, Avenir;}.d{letter-spacing:-0.11em;}.e{clip-path:url(#a);}.f{fill-rule:evenodd;}</style><clipPath id="a"><rect class="a" y="15" width="720" height="540"/></clipPath></defs><title>Tasrif Logo Final</title><text class="b" transform="translate(314.32 225.27)">ﻒﻳﺮﺼﺗ</text><text class="c" transform="translate(314.32 321.64)"><tspan class="d">T</tspan><tspan x="45.01" y="0">asrif</tspan></text><g class="e"><path class="f" d="M147.48,218.09l80.81,80.82c14.7-14.7,36.68-36.74,44.09-44.09s10.11-9.62,13.94-15.43a51.95,51.95,0,0,0-72-72c-5.81,3.84-10.51,9-15.43,14-4.92-4.93-9.63-10.12-15.45-14a51.94,51.94,0,0,0-65.37,80.06l80.82,80.82L213.6,313.6l-80.82-80.81a31.17,31.17,0,0,1,44.08-44.09l22,22.05,22-22A31.17,31.17,0,1,1,265,232.78L228.3,269.51l-14.69-14.69,36.72-36.72a10.39,10.39,0,1,0-14.7-14.7l-36.72,36.72-36.73-36.73a10.39,10.39,0,0,0-14.7,14.7"/></g><text class="b" transform="translate(313.32 225.27)">ﻒﻳﺮﺼﺗ</text><text class="c" transform="translate(313.32 321.64)"><tspan class="d">T</tspan><tspan x="45.01" y="0">asrif</tspan></text></svg>